<?xml version="1.0" encoding="UTF-8"?>
<svg version="1.1" xmlns="http://www.w3.org/2000/svg" width="437" height="279">
<path d="M0 0 C5.24543819 -0.28778922 9.84214917 0.66497279 13.80322266 4.19873047 C15.16821094 7.12415571 15.33234252 10.00360525 15.55322266 13.19873047 C15.64990234 14.13571777 15.74658203 15.07270508 15.84619141 16.03808594 C16.0661272 18.18619343 16.27004546 20.33597677 16.46142578 22.48681641 C16.84473052 26.64950592 17.29275804 30.80216915 17.75634766 34.95654297 C17.84145599 35.71962265 17.92656433 36.48270233 18.01425171 37.26890564 C18.18904643 38.83305999 18.36412806 40.39718231 18.53948975 41.96127319 C18.80242165 44.31655527 19.06138179 46.67224416 19.31933594 49.02807617 C20.24972677 57.49572507 21.212055 65.95381798 22.42822266 74.38623047 C22.53908203 75.1927002 22.64994141 75.99916992 22.76416016 76.83007812 C23.03771377 78.632194 23.40872862 80.41917219 23.80322266 82.19873047 C24.46322266 82.52873047 25.12322266 82.85873047 25.80322266 83.19873047 C25.99791138 81.30392944 25.99791138 81.30392944 26.1965332 79.37084961 C26.79128093 74.03087537 27.6328914 68.74464428 28.51025391 63.44482422 C28.67692062 62.42687271 28.84358734 61.4089212 29.01530457 60.36012268 C29.54662381 57.11846753 30.08114744 53.87735009 30.61572266 50.63623047 C30.96293228 48.51972753 31.30993898 46.4031913 31.65673828 44.28662109 C34.01342358 29.91975345 36.40334231 15.55843869 38.80322266 1.19873047 C49.01162689 -1.54848152 61.64011547 2.25073768 71.99072266 3.76123047 C73.62675236 3.99782154 75.26281983 4.23415163 76.89892578 4.47021484 C80.86746614 5.04338144 84.83548008 5.62006813 88.80322266 6.19873047 C89.78756224 9.15174923 89.98317538 11.27484263 90.08447266 14.36279297 C90.1212915 15.39380127 90.15811035 16.42480957 90.19604492 17.48706055 C90.2490979 19.13871216 90.2490979 19.13871216 90.30322266 20.82373047 C90.5642349 28.22856886 90.86064226 35.61901807 91.36572266 43.01123047 C91.78799502 49.50987793 91.83622024 55.96490472 91.78393555 62.4753418 C91.73582644 72.89341889 92.11359775 83.30245921 92.44775391 93.71386719 C92.49364412 95.16714496 92.53922169 96.62043265 92.58447266 98.07373047 C92.60670898 98.78715607 92.62894531 99.50058167 92.65185547 100.23562622 C92.76573066 104.12223849 92.81090666 107.99839213 92.77197266 111.88623047 C92.74591702 116.36968764 92.91756965 120.81923152 93.15055847 125.29469299 C93.87665924 139.26920473 93.99085436 153.22695894 93.98852539 167.21850586 C93.9884219 170.63203821 94.00231878 174.04537119 94.0192976 177.45885563 C94.03305936 180.75885847 94.03250309 184.05885906 94.03369141 187.35888672 C94.04087692 188.57649185 94.04806244 189.79409698 94.0554657 191.04859924 C94.05238907 192.17845749 94.04931244 193.30831573 94.04614258 194.47241211 C94.0475676 195.4608461 94.04899261 196.44928009 94.05046082 197.46766663 C93.78321594 200.41973038 93.15548699 202.56522698 91.80322266 205.19873047 C88.25658779 206.46363034 84.62281249 206.32738447 80.88134766 206.33154297 C79.77404297 206.33283203 78.66673828 206.33412109 77.52587891 206.33544922 C76.37990234 206.33158203 75.23392578 206.32771484 74.05322266 206.32373047 C72.31105469 206.32953125 72.31105469 206.32953125 70.53369141 206.33544922 C69.43154297 206.33416016 68.32939453 206.33287109 67.19384766 206.33154297 C66.18354492 206.33041504 65.17324219 206.32928711 64.13232422 206.328125 C61.80322266 206.19873047 61.80322266 206.19873047 60.80322266 205.19873047 C60.56386558 202.84543381 60.38606623 200.51398558 60.24658203 198.15405273 C60.19927444 197.41538467 60.15196686 196.67671661 60.10322571 195.91566467 C59.94651372 193.44908909 59.79662635 190.9821499 59.64697266 188.51513672 C59.53901468 186.78521265 59.43073309 185.05530874 59.32214355 183.32542419 C59.09398269 179.67440009 58.8690557 176.02319519 58.64648438 172.37182617 C58.36592549 167.77151949 58.07870557 163.17166115 57.78921509 158.57190895 C56.54626303 138.78749588 55.40125809 119.01495678 54.80322266 99.19873047 C53.31822266 99.69373047 53.31822266 99.69373047 51.80322266 100.19873047 C50.33916516 109.17254172 49.13976794 118.17033578 47.98193359 127.18774414 C47.12519124 133.82535012 46.20583598 140.45107744 45.24072266 147.07373047 C44.10513262 154.88137015 43.1143621 162.69438485 42.23291016 170.53466797 C41.4319249 177.36488766 40.3637689 184.15493423 39.30322266 190.94873047 C39.17302734 191.79822266 39.04283203 192.64771484 38.90869141 193.52294922 C38.78107422 194.33892578 38.65345703 195.15490234 38.52197266 195.99560547 C38.40789062 196.73133789 38.29380859 197.46707031 38.17626953 198.22509766 C37.80322266 200.19873047 37.80322266 200.19873047 36.80322266 203.19873047 C31.47454283 204.30814414 26.3404041 204.31421116 20.92822266 204.26123047 C20.04908203 204.25671875 19.16994141 204.25220703 18.26416016 204.24755859 C16.11048463 204.23585384 13.95684449 204.21792116 11.80322266 204.19873047 C10.97950523 201.72757818 10.51674855 199.67387536 10.15820312 197.12182617 C10.0404805 196.29426315 9.92275787 195.46670013 9.8014679 194.61405945 C9.67571884 193.7100087 9.54996979 192.80595795 9.42041016 191.87451172 C9.28527512 190.92030838 9.15014008 189.96610504 9.01091003 188.98298645 C8.56421543 185.82607732 8.12125425 182.66865556 7.67822266 179.51123047 C7.05076625 175.06701445 6.42126066 170.62308979 5.79150391 166.17919922 C5.62974167 165.03612305 5.46797943 163.89304688 5.30131531 162.71533203 C4.15040883 154.59850593 2.97478406 146.48553294 1.78369141 138.37451172 C1.6216925 137.27051529 1.4596936 136.16651886 1.29278564 135.02906799 C0.66211886 130.73442796 0.03081336 126.43988815 -0.60430908 122.14590454 C-1.04185505 119.18720903 -1.47692354 116.22815809 -1.91162109 113.26904297 C-2.0425264 112.39004837 -2.1734317 111.51105377 -2.30830383 110.60542297 C-2.48500862 109.39888313 -2.48500862 109.39888313 -2.6652832 108.16796875 C-2.76852402 107.46970978 -2.87176483 106.77145081 -2.97813416 106.05203247 C-3.19677734 104.19873047 -3.19677734 104.19873047 -3.19677734 101.19873047 C-5.83677734 100.53873047 -8.47677734 99.87873047 -11.19677734 99.19873047 C-12.07075865 104.65608549 -12.4843877 110.04276568 -12.72802734 115.56201172 C-12.76955933 116.47058426 -12.81109131 117.3791568 -12.85388184 118.31526184 C-13.29575623 128.57325424 -13.47425373 138.83540872 -13.64233398 149.10089111 C-14.14307637 179.31777487 -14.14307637 179.31777487 -14.69677734 194.32373047 C-14.73222656 195.35780029 -14.76767578 196.39187012 -14.80419922 197.45727539 C-14.8409375 198.36453369 -14.87767578 199.27179199 -14.91552734 200.20654297 C-14.94582031 200.96596191 -14.97611328 201.72538086 -15.00732422 202.5078125 C-15.19677734 204.19873047 -15.19677734 204.19873047 -16.19677734 205.19873047 C-18.03836757 205.29832667 -19.88374701 205.32953457 -21.72802734 205.33154297 C-22.84822266 205.33283203 -23.96841797 205.33412109 -25.12255859 205.33544922 C-26.30205078 205.33158203 -27.48154297 205.32771484 -28.69677734 205.32373047 C-30.46601563 205.32953125 -30.46601563 205.32953125 -32.27099609 205.33544922 C-33.95128906 205.33351562 -33.95128906 205.33351562 -35.66552734 205.33154297 C-36.70128906 205.33041504 -37.73705078 205.32928711 -38.80419922 205.328125 C-41.19677734 205.19873047 -41.19677734 205.19873047 -42.19677734 204.19873047 C-42.29940207 202.52420469 -42.32762602 200.84514687 -42.32958984 199.16748047 C-42.331604 198.01957031 -42.33361816 196.87166016 -42.33569336 195.68896484 C-42.33110107 194.3721875 -42.32650879 193.05541016 -42.32177734 191.69873047 C-42.32055878 191.00303955 -42.31934021 190.30734863 -42.31808472 189.59057617 C-42.27184105 166.16993859 -41.79768137 142.75041714 -41.40991211 119.33343506 C-41.24211599 109.16890421 -41.08879444 99.0042221 -40.94287109 88.83935547 C-40.24666161 40.53937655 -40.24666161 40.53937655 -39.69677734 18.69873047 C-39.67881104 17.92734741 -39.66084473 17.15596436 -39.64233398 16.36120605 C-39.59278313 14.27561737 -39.53675292 12.19032817 -39.47802734 10.10498047 C-39.43258789 8.40825195 -39.43258789 8.40825195 -39.38623047 6.67724609 C-39.19677734 4.19873047 -39.19677734 4.19873047 -38.19677734 3.19873047 C-36.4935314 3.00220209 -34.78282675 2.87068402 -33.07177734 2.76123047 C-28.54159445 2.44949757 -24.01998747 2.10130171 -19.49755859 1.69091797 C-18.49160645 1.5999585 -17.4856543 1.50899902 -16.44921875 1.4152832 C-14.43955766 1.23231024 -12.43010699 1.04700792 -10.42089844 0.85913086 C-6.94900751 0.54680842 -3.47150561 0.31404818 0 0 Z " fill="#f43f5e" transform="translate(305.19677734375,37.80126953125)"/>
<path d="M0 0 C2.17106149 -0.02145413 4.34203951 -0.05540445 6.51269531 -0.10253906 C21.27795296 -0.41938041 35.27582338 -0.06001423 47.97338867 8.4050293 C48.40576172 10.94165039 48.40576172 10.94165039 48.48510742 14.1784668 C48.53852295 15.98528931 48.53852295 15.98528931 48.59301758 17.82861328 C48.62661377 19.78456421 48.62661377 19.78456421 48.66088867 21.7800293 C48.69310454 23.12648482 48.72615473 24.47292063 48.76000977 25.81933594 C48.8580761 30.01428186 48.92112092 34.20928743 48.97338867 38.4050293 C48.98198914 39.07866516 48.9905896 39.75230103 48.99945068 40.4463501 C49.05338804 44.91173816 49.08319524 49.3768531 49.09838867 53.8425293 C49.10314209 55.00123535 49.10789551 56.15994141 49.11279297 57.35375977 C49.08292277 72.2954952 49.08292277 72.2954952 45.97338867 75.4050293 C33.18469055 78.41632159 20.79778727 77.67205202 7.97338867 75.4050293 C6.08062845 73.51226908 6.68466942 70.1938725 6.57885742 67.66674805 C6.51004829 66.27542959 6.44035874 64.88415445 6.36987305 63.49291992 C6.26267752 61.29430768 6.16102572 59.09602142 6.07470703 56.89648438 C5.98907022 54.77703294 5.87960949 52.6598801 5.76635742 50.54174805 C5.70988037 49.27032959 5.65340332 47.99891113 5.59521484 46.68896484 C4.88356469 42.93065852 4.02424068 41.65119937 0.97338867 39.4050293 C-1.8574033 39.13661126 -1.8574033 39.13661126 -4.77661133 39.6550293 C-5.76145508 39.78393555 -6.74629883 39.9128418 -7.76098633 40.0456543 C-8.50864258 40.16424805 -9.25629883 40.2828418 -10.02661133 40.4050293 C-10.71615416 42.31358536 -11.37677329 44.23259176 -12.02661133 46.1550293 C-12.39786133 47.22237305 -12.76911133 48.2897168 -13.15161133 49.3894043 C-14.5641263 54.64567632 -14.1922528 60.01044461 -14.02661133 65.4050293 C-13.99841309 66.37069824 -13.97021484 67.33636719 -13.94116211 68.33129883 C-13.83770519 71.41905024 -13.71506072 74.50561586 -13.58911133 77.5925293 C-13.26349732 85.92441714 -12.99388269 94.25176984 -12.84301758 102.58862305 C-12.33196093 129.91467763 -10.82320994 157.13492717 -9.02661133 184.4050293 C-3.41661133 184.0750293 2.19338867 183.7450293 7.97338867 183.4050293 C8.76075735 164.9927156 9.13202954 146.81979985 7.97338867 128.4050293 C11.8653869 128.37987969 15.75735217 128.36196225 19.64941406 128.35009766 C21.60703195 128.34273194 23.56462738 128.33001104 25.5222168 128.31713867 C33.68368151 128.29637159 41.86759553 128.34517399 49.97338867 129.4050293 C51.91544041 131.34708103 51.14162993 134.30936949 51.1628418 136.8972168 C51.161875 138.35514648 51.161875 138.35514648 51.16088867 139.8425293 C51.1615332 140.85702148 51.16217773 141.87151367 51.1628418 142.91674805 C51.04979107 160.75820856 49.91459632 178.59217392 48.97338867 196.4050293 C46.32179712 197.77992862 43.66335887 199.10852179 40.97338867 200.4050293 C39.83674522 200.96676849 39.83674522 200.96676849 38.67713928 201.53985596 C31.72480569 204.68197155 25.40413263 205.00644509 17.84448242 205.0144043 C16.6148024 205.03094055 15.38512238 205.04747681 14.11817932 205.06451416 C10.21569805 205.11275927 6.31360299 205.13428173 2.41088867 205.1550293 C-0.21347976 205.1832187 -2.8378301 205.21315022 -5.4621582 205.24487305 C-11.33765019 205.31137318 -17.21291653 205.36671281 -23.08876038 205.38832092 C-24.97187791 205.39903074 -26.85498565 205.42113718 -28.73777771 205.45774841 C-33.71435635 205.53523369 -36.23984311 205.42998604 -39.96411133 201.9675293 C-50.11276009 191.43587273 -56.28697364 180.45470421 -56.15966797 165.66650391 C-56.11551523 164.03767362 -56.07115808 162.40884886 -56.02661133 160.7800293 C-56.01263967 158.1637202 -56.01666898 155.54777905 -56.02076721 152.93144226 C-56.02206186 151.1366067 -56.01751044 149.34175763 -56.00718689 147.54695129 C-55.96283266 137.78984466 -56.5115219 128.07927385 -57.08911133 118.3425293 C-57.73523327 107.34598831 -58.17910068 96.42731008 -58.02661133 85.4050293 C-58.01041748 84.14859619 -57.99422363 82.89216309 -57.97753906 81.59765625 C-57.9116381 77.59523742 -57.82257923 73.59397782 -57.71411133 69.5925293 C-57.69493652 68.87745209 -57.67576172 68.16237488 -57.65600586 67.42562866 C-57.32628241 55.81965082 -56.57547292 44.27994591 -55.52661133 32.7175293 C-55.46089935 31.99310638 -55.39518738 31.26868347 -55.32748413 30.52230835 C-54.70854689 23.79219437 -54.01886633 17.09263638 -53.02661133 10.4050293 C-46.90921742 7.71457841 -40.67825427 5.60655003 -34.27661133 3.7175293 C-33.55610596 3.50330322 -32.83560059 3.28907715 -32.09326172 3.06835938 C-21.44385374 -0.01808681 -11.01475592 0.08149322 0 0 Z " fill="#f43f5e" transform="translate(204.026611328125,39.594970703125)"/>
<path d="M0 0 C5.2361254 -0.10425913 10.37870366 -0.00878954 15.59326172 0.50439453 C21.8342059 1.04498462 27.99824449 1.0792806 34.2578125 0.9921875 C36.53384994 0.97470128 38.80989186 0.9577902 41.0859375 0.94140625 C44.63033602 0.91024562 48.17450795 0.87436097 51.71875 0.82861328 C55.16930081 0.78652186 58.61957666 0.76293037 62.0703125 0.7421875 C63.13790802 0.72356659 64.20550354 0.70494568 65.30545044 0.6857605 C66.28762543 0.68230621 67.26980042 0.67885193 68.28173828 0.67529297 C69.14711212 0.66561493 70.01248596 0.65593689 70.90408325 0.64596558 C71.59573578 0.76279694 72.28738831 0.8796283 73 1 C75.50209533 4.753143 75.33165043 7.76934422 75.37890625 12.12109375 C75.39590073 12.93506119 75.4128952 13.74902863 75.43040466 14.58766174 C75.48351396 17.2041943 75.5236453 19.82072032 75.5625 22.4375 C75.62183862 25.83212324 75.68672983 29.2266172 75.75390625 32.62109375 C75.77019073 33.47845627 75.78647522 34.33581879 75.80325317 35.21916199 C75.92709142 41.1276152 76.17575113 47.02105682 76.49609375 52.921875 C77.07066721 63.5483177 77.2992084 74.17336011 77.5 84.8125 C77.71219393 95.9903607 77.98345493 107.1527821 78.51953125 118.3203125 C79.04402648 129.51486058 79.18617256 140.69518942 79.18530273 151.90112305 C79.18752079 155.09241493 79.20587606 158.2833766 79.22460938 161.47460938 C79.31312588 192.232683 79.31312588 192.232683 71 202 C69.1342153 203.8657847 66.00342761 203.16685978 63.51171875 203.19287109 C62.83352585 203.20104858 62.15533295 203.20922607 61.45658875 203.21765137 C59.20023486 203.24256517 56.94394455 203.25904435 54.6875 203.2734375 C53.9163385 203.27876118 53.145177 203.28408485 52.35064697 203.28956985 C48.2619323 203.31633869 44.17324843 203.33569382 40.08447266 203.35009766 C35.87565822 203.36667456 31.66763773 203.41138144 27.4591217 203.4624691 C24.21269931 203.49627663 20.96646125 203.50769026 17.71987915 203.51332474 C16.16983029 203.52000963 14.61979236 203.53515935 13.06991577 203.55921555 C4.47579069 203.68489975 -3.06668917 203.73093472 -10 198 C-17.15746288 189.25513941 -15.48101626 176.55383893 -15 166 C-14.93060155 164.20965042 -14.86159183 162.41928572 -14.79296875 160.62890625 C-14.60572847 156.04646836 -14.37666937 151.46688732 -14.14111328 146.88671875 C-13.99327724 143.86247414 -13.86678969 140.83794479 -13.74609375 137.8125 C-13.70476318 136.78874268 -13.66343262 135.76498535 -13.62084961 134.71020508 C-13.54275924 132.75699942 -13.46661373 130.80371459 -13.39282227 128.8503418 C-13.1601574 123.1915453 -12.68773098 117.62220077 -12 112 C-7.62607469 111.71101811 -3.25189354 111.42637458 1.12255859 111.14550781 C2.6063574 111.04965435 4.09008411 110.95267709 5.57373047 110.85449219 C28.65805539 109.3290277 28.65805539 109.3290277 32 111 C33.41604542 117.5903935 33.11423317 124.60560068 33.02734375 131.3125 C33.01471848 133.23046709 33.00235604 135.14843592 32.99023438 137.06640625 C32.96526548 140.05327958 32.93705733 143.04005971 32.90405273 146.02685547 C32.87400549 148.93457662 32.85614457 151.84217408 32.83984375 154.75 C32.82638412 155.64887939 32.8129245 156.54775879 32.79905701 157.47387695 C32.79567825 158.30234131 32.7922995 159.13080566 32.78881836 159.984375 C32.78136093 160.71366211 32.7739035 161.44294922 32.76622009 162.19433594 C32.84595203 164.25292686 32.84595203 164.25292686 35 166 C38.08347826 166.16681109 38.08347826 166.16681109 41 166 C41.74436698 160.56092666 42.1992312 155.21452468 42.37304688 149.72998047 C42.40084732 148.94485077 42.42864777 148.15972107 42.45729065 147.35079956 C42.54777368 144.77303226 42.63324074 142.19512415 42.71875 139.6171875 C42.78183901 137.79801243 42.84528141 135.97884959 42.90905762 134.15969849 C43.07614469 129.37117578 43.23914511 124.58252323 43.40106201 119.79382324 C44.92865782 74.72739097 44.92865782 74.72739097 45.53125 60.9453125 C45.58158386 59.74344803 45.58158386 59.74344803 45.63293457 58.51730347 C45.88861474 52.98901218 46.40586858 47.50163181 47 42 C46.01 42.495 46.01 42.495 45 43 C41.59024615 43.24899405 38.16778771 43.18999474 34.75 43.1875 C33.73470215 43.18741943 32.7194043 43.18733887 31.67333984 43.18725586 C24.28940588 43.13315485 16.97763571 42.73419365 9.625 42.0625 C8.67463867 41.97572998 7.72427734 41.88895996 6.74511719 41.79956055 C0.13880756 41.13880756 0.13880756 41.13880756 -1 40 C-1.24403602 37.0986829 -1.42771351 34.21944166 -1.5625 31.3125 C-1.6035083 30.4555957 -1.6445166 29.59869141 -1.68676758 28.71582031 C-2.66502417 6.99568845 -2.66502417 6.99568845 0 0 Z " fill="#f43f5e" transform="translate(52,40)"/>
<path d="M0 0 C0 0.66 0 1.32 0 2 C-1.670625 2.433125 -1.670625 2.433125 -3.375 2.875 C-5.97167189 3.97661838 -6.80852765 4.54145248 -7.91015625 7.1796875 C-8.9278298 12.13990378 -9.10327541 16.93950475 -9 22 C-9.33 22.99 -9.66 23.98 -10 25 C-10.06948912 28.45708383 -9.99736278 31.90229944 -9.9375 35.359375 C-10 39 -10 39 -10.48852539 42.30639648 C-10.97507063 45.81997305 -11.17063198 49.19462689 -11.24609375 52.73828125 C-11.27896484 53.96998047 -11.31183594 55.20167969 -11.34570312 56.47070312 C-11.40736532 59.05133156 -11.46459181 61.63206947 -11.51757812 64.21289062 C-11.55173828 65.43814453 -11.58589844 66.66339844 -11.62109375 67.92578125 C-11.6461499 69.04380127 -11.67120605 70.16182129 -11.69702148 71.3137207 C-12 74 -12 74 -14 76 C-14.33638543 59.05652463 -14.13451349 42.31914609 -12.5625 25.4375 C-12.49501556 24.71089172 -12.42753113 23.98428345 -12.35800171 23.23565674 C-11.71935869 16.46705855 -10.99475236 9.72731446 -10 3 C-8.70990357 2.49596232 -7.41786211 1.99690074 -6.125 1.5 C-5.40570313 1.2215625 -4.68640625 0.943125 -3.9453125 0.65625 C-2 0 -2 0 0 0 Z " fill="#f43f5e" transform="translate(161,47)"/>
<path d="M0 0 C0.99 0.33 1.98 0.66 3 1 C3 2.32 3 3.64 3 5 C2.34 5.66 1.68 6.32 1 7 C0.73759587 10.09443702 0.73759587 10.09443702 0.83984375 13.72265625 C0.84504532 14.38333603 0.85024689 15.04401581 0.85560608 15.72471619 C0.87343951 17.837533 0.90462137 19.94986785 0.9375 22.0625 C0.96507596 24.1786555 0.98977919 26.29474432 1.00868225 28.41099548 C1.02658466 30.32883713 1.05397594 32.24658309 1.08178711 34.16430664 C1 37 1 37 0 38 C-0.15910072 39.65457178 -0.25147024 41.31562779 -0.31640625 42.9765625 C-0.35822021 44.02972656 -0.40003418 45.08289063 -0.44311523 46.16796875 C-0.48251221 47.30878906 -0.52190918 48.44960937 -0.5625 49.625 C-0.60640869 50.78386719 -0.65031738 51.94273437 -0.69555664 53.13671875 C-1.00644933 62.08264074 -1.06325765 71.01393595 -0.87524414 79.96337891 C-0.86356201 80.86233887 -0.85187988 81.76129883 -0.83984375 82.6875 C-0.82300537 83.47511719 -0.80616699 84.26273437 -0.78881836 85.07421875 C-1 87 -1 87 -3 89 C-4.24993101 85.25020696 -4.00571521 81.87198904 -3.85400391 77.98022461 C-3.81274132 76.75543648 -3.81274132 76.75543648 -3.77064514 75.50590515 C-3.6781317 72.80449357 -3.57756531 70.10345027 -3.4765625 67.40234375 C-3.40991865 65.52813434 -3.34362897 63.65391231 -3.27767944 61.77967834 C-3.13820609 57.85127262 -2.99482153 53.92303445 -2.84863281 49.99487305 C-2.66121867 44.95199717 -2.48288977 39.90884944 -2.30739784 34.86554623 C-2.1718444 30.99564539 -2.03180541 27.12591713 -1.89036179 23.25622749 C-1.82286408 21.39627369 -1.75670309 19.53627089 -1.69188309 17.67622185 C-1.60069962 15.0807514 -1.50356693 12.48557171 -1.40478516 9.89038086 C-1.37875717 9.11682251 -1.35272919 8.34326416 -1.32591248 7.54626465 C-1.11430598 2.22861195 -1.11430598 2.22861195 0 0 Z M-4 89 C-3.67 89 -3.34 89 -3 89 C-3 90.65 -3 92.3 -3 94 C-3.33 94 -3.66 94 -4 94 C-4 92.35 -4 90.7 -4 89 Z " fill="#f43f5e" transform="translate(98,112)"/>
<path d="M0 0 C0.33 0 0.66 0 1 0 C2.15867578 22.74363448 3.20218177 45.47303769 3.25 68.25 C3.25749268 69.51410202 3.25749268 69.51410202 3.26513672 70.80374146 C3.27674833 73.16621053 3.27406223 75.5281524 3.265625 77.890625 C3.2695929 78.58741867 3.27356079 79.28421234 3.27764893 80.00212097 C3.23084086 84.76915914 3.23084086 84.76915914 1 87 C1.01160156 85.89011719 1.02320312 84.78023438 1.03515625 83.63671875 C1.11319609 72.35996244 0.95759839 61.08893084 0.68161011 49.81582642 C0.64392024 48.23238479 0.60950786 46.6488617 0.57839966 45.0652771 C0.53305617 42.81270606 0.47517548 40.56078537 0.4140625 38.30859375 C0.3826416 36.99689209 0.3512207 35.68519043 0.31884766 34.33374023 C0.02135728 31.22330296 -0.51313327 29.65728334 -2 27 C-1.94140625 23.94140625 -1.94140625 23.94140625 -1.5625 20.5625 C-1.04167425 15.95738423 -1.04167425 15.95738423 -1.5234375 11.390625 C-2.07037683 8.64696213 -1.74642364 6.88296375 -1.0625 4.1875 C-0.86785156 3.39730469 -0.67320313 2.60710938 -0.47265625 1.79296875 C-0.31667969 1.20128906 -0.16070312 0.60960937 0 0 Z " fill="#f43f5e" transform="translate(126,57)"/>
<path d="M0 0 C8.0492212 -0.06943237 16.09831782 -0.12277646 24.14776421 -0.15543652 C27.88523796 -0.17110972 31.62250723 -0.19237761 35.35986328 -0.22631836 C38.9649164 -0.25885367 42.56977252 -0.27684054 46.17496109 -0.28463173 C47.55213651 -0.29018581 48.92930085 -0.30103135 50.30639267 -0.31719017 C52.23133631 -0.33888435 54.15647712 -0.34022471 56.08154297 -0.34057617 C57.17852509 -0.34723801 58.2755072 -0.35389984 59.4057312 -0.36076355 C60.68989426 -0.18218559 60.68989426 -0.18218559 62 0 C64.35119399 3.52679099 64.21443452 5.02879485 64.125 9.1875 C64.10695313 10.27417969 64.08890625 11.36085938 64.0703125 12.48046875 C64.04710938 13.31191406 64.02390625 14.14335938 64 15 C62 13 62 13 61.8046875 10.8359375 C61.82789063 10.02382813 61.85109375 9.21171875 61.875 8.375 C61.89304688 7.55773438 61.91109375 6.74046875 61.9296875 5.8984375 C61.95289063 5.27195312 61.97609375 4.64546875 62 4 C56.22034025 2.99810027 50.64656949 2.88466323 44.7890625 2.9375 C43.82149017 2.94128662 42.85391785 2.94507324 41.85702515 2.94897461 C37.74479867 2.96521619 33.63267431 2.99334345 29.52050781 3.02050781 C26.50586414 3.03869715 23.49123699 3.05072527 20.4765625 3.0625 C19.56065338 3.07079834 18.64474426 3.07909668 17.70108032 3.08764648 C12.05353044 3.10890199 6.58487904 2.88766289 1 2 C0.67 1.34 0.34 0.68 0 0 Z " fill="#f43f5e" transform="translate(63,41)"/>
<path d="M0 0 C1.4867973 0.0295777 2.97222191 0.13400601 4.453125 0.26953125 C5.37722168 0.35283691 6.30131836 0.43614258 7.25341797 0.52197266 C8.73672607 0.66578369 8.73672607 0.66578369 10.25 0.8125 C11.24531738 0.9057959 12.24063477 0.9990918 13.26611328 1.09521484 C20.56125653 1.80234271 27.78107496 2.71966235 35 4 C31.85681435 5.88876235 30.13746731 6.12523201 26.5625 5.4375 C23.12461459 4.93826912 22.2149917 4.89908553 18.9375 6.4375 C18.298125 6.953125 17.65875 7.46875 17 8 C16.67 6.68 16.34 5.36 16 4 C13.68756208 3.97314588 11.3750373 3.95367159 9.0625 3.9375 C7.13083984 3.92009766 7.13083984 3.92009766 5.16015625 3.90234375 C2.13701597 3.63467451 2.13701597 3.63467451 1 5 C0.855625 6.155 0.71125 7.31 0.5625 8.5 C0.376875 9.655 0.19125 10.81 0 12 C-0.99 12.495 -0.99 12.495 -2 13 C-1.85966889 11.02043559 -1.7125877 9.04134859 -1.5625 7.0625 C-1.48128906 5.96035156 -1.40007812 4.85820313 -1.31640625 3.72265625 C-1 1 -1 1 0 0 Z " fill="#f43f5e" transform="translate(345,38)"/>
<path d="M0 0 C0.99 0.33 1.98 0.66 3 1 C3.19206145 6.80207784 3.37081576 12.60435291 3.53710938 18.40722656 C3.59560041 20.38227398 3.65776216 22.35721618 3.72363281 24.33203125 C3.817545 27.16647181 3.89835955 30.00102553 3.9765625 32.8359375 C4.00875885 33.72243988 4.0409552 34.60894226 4.0741272 35.52230835 C4.12718594 37.68102831 4.07314362 39.84186721 4 42 C3.34 42.66 2.68 43.32 2 44 C0.47208917 42.47208917 0.83816543 41.07010592 0.79467773 38.93920898 C0.7647599 37.64798378 0.7647599 37.64798378 0.73423767 36.33067322 C0.71752518 35.39526199 0.70081268 34.45985077 0.68359375 33.49609375 C0.66281265 32.54307877 0.64203156 31.59006378 0.62062073 30.60816956 C0.55501823 27.5513559 0.49619082 24.49445344 0.4375 21.4375 C0.39432494 19.37043337 0.35071099 17.30337586 0.30664062 15.23632812 C0.19932599 10.15764405 0.09808909 5.0788703 0 0 Z " fill="#f43f5e" transform="translate(148,176)"/>
<path d="M0 0 C1.51953125 1.17578125 1.51953125 1.17578125 3 3 C3.07421875 5.48046875 3.07421875 5.48046875 2.6875 8.1875 C2.56761719 9.08855469 2.44773437 9.98960937 2.32421875 10.91796875 C2.21722656 11.60503906 2.11023438 12.29210937 2 13 C2.66 13 3.32 13 4 13 C4 17.29 4 21.58 4 26 C4.66 26 5.32 26 6 26 C6.19601608 27.74906659 6.38147403 29.49931846 6.5625 31.25 C6.66691406 32.22453125 6.77132813 33.1990625 6.87890625 34.203125 C6.98974468 36.7631352 6.77738092 38.58148159 6 41 C6.66 41 7.32 41 8 41 C8 43.97 8 46.94 8 50 C7.34 50 6.68 50 6 50 C5.1392919 44.00518333 4.28499801 38.00949985 3.43652344 32.01293945 C3.14725143 29.97493079 2.85625673 27.93716584 2.56347656 25.8996582 C2.14190086 22.96368453 1.7266162 20.02687771 1.3125 17.08984375 C1.11563599 15.73317848 1.11563599 15.73317848 0.91479492 14.34910583 C0.23925803 9.51073141 -0.13965939 4.88516905 0 0 Z " fill="#f43f5e" transform="translate(309,183)"/>
<path d="M0 0 C0.33 0 0.66 0 1 0 C1.02469492 6.21134144 1.04285758 12.42265438 1.05493164 18.6340332 C1.05996444 20.74764504 1.0667912 22.86125338 1.07543945 24.97485352 C1.08755104 28.01058818 1.09323881 31.04627686 1.09765625 34.08203125 C1.10281754 35.02899368 1.10797882 35.97595612 1.11329651 36.95161438 C1.11337204 37.83230087 1.11344757 38.71298737 1.11352539 39.62036133 C1.115746 40.39535477 1.11796661 41.17034821 1.12025452 41.96882629 C1 44 1 44 0 47 C-0.66 46.67 -1.32 46.34 -2 46 C-2.12632419 38.5468726 -2.12632419 38.5468726 -1.49780273 35.82592773 C-0.88612045 32.3535283 -0.90622688 29.07291947 -0.9375 25.546875 C-0.94128662 24.84604797 -0.94507324 24.14522095 -0.94897461 23.42315674 C-0.96113245 21.19870685 -0.97977827 18.97439029 -1 16.75 C-1.02649948 13.80729555 -1.04651265 10.86465314 -1.0625 7.921875 C-1.07410156 6.61831055 -1.08570313 5.31474609 -1.09765625 3.97167969 C-1 1 -1 1 0 0 Z " fill="#f43f5e" transform="translate(290,168)"/>
<path d="M0 0 C0.33 0 0.66 0 1 0 C3.05857844 30.03318897 3.05857844 30.03318897 0 38 C-0.66 37.67 -1.32 37.34 -2 37 C-2 20 -2 20 -1.53515625 17.80078125 C-0.86198846 14.27770603 -0.64609885 10.76103773 -0.4375 7.1875 C-0.39431641 6.49462891 -0.35113281 5.80175781 -0.30664062 5.08789062 C-0.20138547 3.39211314 -0.10027137 1.69607948 0 0 Z " fill="#f43f5e" transform="translate(397,161)"/>
<path d="M0 0 C1.65 0.66 3.3 1.32 5 2 C5 2.66 5 3.32 5 4 C5.66 4 6.32 4 7 4 C6.67 4.66 6.34 5.32 6 6 C5.01 5.34 4.02 4.68 3 4 C0.24612373 3.97522641 0.24612373 3.97522641 -2.6875 4.375 C-3.68136719 4.48585938 -4.67523438 4.59671875 -5.69921875 4.7109375 C-6.45847656 4.80632812 -7.21773437 4.90171875 -8 5 C-10.31993846 12.28640866 -12.47536437 19.50387484 -14 27 C-14.33 27 -14.66 27 -15 27 C-15.22231991 20.86150023 -14.90643545 15.83845857 -13 10 C-13 9.01 -13 8.02 -13 7 C-12.34 6.67 -11.68 6.34 -11 6 C-9.86649466 3.98330173 -9.86649466 3.98330173 -9 2 C-6.36 2 -3.72 2 -1 2 C-0.67 1.34 -0.34 0.68 0 0 Z " fill="#f43f5e" transform="translate(202,75)"/>
<path d="M0 0 C1.63270104 2.87581413 2.24741973 4.91800375 2.22705078 8.21777344 C2.22689972 9.03832214 2.22674866 9.85887085 2.22659302 10.70428467 C2.21627045 11.58046448 2.20594788 12.45664429 2.1953125 13.359375 C2.1924826 14.26375305 2.18965271 15.1681311 2.18673706 16.09991455 C2.17555782 18.98341195 2.15045733 21.86659675 2.125 24.75 C2.11496728 26.70702676 2.10584194 28.66405839 2.09765625 30.62109375 C2.07562585 35.41418262 2.04111144 40.20703834 2 45 C0.23405941 41.73127859 -0.09288141 39.71525648 0 36 C-0.17072021 35.41379883 -0.34144043 34.82759766 -0.51733398 34.22363281 C-1.14195242 31.34602801 -0.90459353 28.85512237 -0.66015625 25.921875 C-0.56669922 24.76171875 -0.47324219 23.6015625 -0.37695312 22.40625 C-0.22129883 20.59640625 -0.22129883 20.59640625 -0.0625 18.75 C0.03740234 17.52796875 0.13730469 16.3059375 0.24023438 15.046875 C0.48765358 12.03071711 0.74112939 9.01519306 1 6 C0.34 6 -0.32 6 -1 6 C-0.67 4.02 -0.34 2.04 0 0 Z " fill="#f43f5e" transform="translate(189,129)"/>
<path d="M0 0 C0.33 0 0.66 0 1 0 C1 7.59 1 15.18 1 23 C-8 27.5 -8 27.5 -12 28 C-11.375 26.125 -11.375 26.125 -10 24 C-7.2520429 22.85501787 -4.989803 22 -2 22 C-0.92698095 16.23252259 -0.95461807 10.65230588 -1.0625 4.79296875 C-1 2 -1 2 0 0 Z " fill="#f43f5e" transform="translate(252,213)"/>
<path d="M0 0 C8.91 0 17.82 0 27 0 C27 0.33 27 0.66 27 1 C19.08 1.33 11.16 1.66 3 2 C3 5.96 3 9.92 3 14 C2.708529 17.35191645 2.4129895 20.66658474 2 24 C1.67 24 1.34 24 1 24 C0.67 16.08 0.34 8.16 0 0 Z " fill="#f43f5e" transform="translate(212,168)"/>
<path d="M0 0 C0.99 0.33 1.98 0.66 3 1 C2.67 5.62 2.34 10.24 2 15 C2.33 15 2.66 15 3 15 C3.33 20.61 3.66 26.22 4 32 C2.515 32.495 2.515 32.495 1 33 C-0.00708069 21.9760632 -0.10611887 11.05994427 0 0 Z " fill="#f43f5e" transform="translate(362,163)"/>
<path d="M0 0 C0.66 0.33 1.32 0.66 2 1 C2 10.57 2 20.14 2 30 C-4.6 30 -11.2 30 -18 30 C-18 29.67 -18 29.34 -18 29 C-9.585 28.505 -9.585 28.505 -1 28 C-0.67 18.76 -0.34 9.52 0 0 Z " fill="#f43f5e" transform="translate(213,195)"/>
<path d="M0 0 C3.4375 0.8125 3.4375 0.8125 7 2 C7.33 2.99 7.66 3.98 8 5 C10.36358747 7.36910987 11.65263456 7.96625336 15.015625 8.29296875 C16.08296875 8.25816406 17.1503125 8.22335938 18.25 8.1875 C19.32765625 8.16042969 20.4053125 8.13335937 21.515625 8.10546875 C22.33546875 8.07066406 23.1553125 8.03585938 24 8 C24.33 8.66 24.66 9.32 25 10 C23.0137698 10.40743184 21.0079077 10.71818839 19 11 C18.32324219 11.12632812 17.64648438 11.25265625 16.94921875 11.3828125 C12.80223212 11.83949664 10.6969646 11.48214008 7.19921875 9.0625 C4.64197795 6.80547276 2.23112735 4.5804688 0 2 C0 1.34 0 0.68 0 0 Z " fill="#f43f5e" transform="translate(159,234)"/>
<path d="M0 0 C0.33 0 0.66 0 1 0 C1.02500541 4.08934581 1.04300222 8.17866105 1.05493164 12.26806641 C1.05991293 13.65479306 1.06670039 15.04151459 1.07543945 16.42822266 C1.12398542 24.33835992 1.03835551 32.14502199 0 40 C-0.99 39.01 -1.98 38.02 -3 37 C-2.34 37 -1.68 37 -1 37 C-1.18433594 35.989375 -1.36867187 34.97875 -1.55859375 33.9375 C-2.38900794 27.29418648 -1.58721765 20.64426754 -1.0625 14 C-0.96086659 12.63937665 -0.85994915 11.27869962 -0.75976562 9.91796875 C-0.51353059 6.61138394 -0.26007416 3.30552025 0 0 Z " fill="#f43f5e" transform="translate(130,189)"/>
<path d="M0 0 C0.99 0 1.98 0 3 0 C3 0.66 3 1.32 3 2 C3.66 2.33 4.32 2.66 5 3 C5.10884119 4.41493551 5.18597617 5.83232943 5.25 7.25 C5.29640625 8.03890625 5.3428125 8.8278125 5.390625 9.640625 C5 12 5 12 1 16 C1.33 11.38 1.66 6.76 2 2 C1.01 2.495 1.01 2.495 0 3 C-1.44848582 3.08342159 -2.90070869 3.10732861 -4.3515625 3.09765625 C-5.20234375 3.09443359 -6.053125 3.09121094 -6.9296875 3.08789062 C-7.81914063 3.07951172 -8.70859375 3.07113281 -9.625 3.0625 C-10.5221875 3.05798828 -11.419375 3.05347656 -12.34375 3.04882812 C-14.56256648 3.03702591 -16.78125018 3.02056155 -19 3 C-19 2.67 -19 2.34 -19 2 C-17.71222656 1.93941406 -16.42445312 1.87882812 -15.09765625 1.81640625 C-13.41925841 1.73201753 -11.74087364 1.6473687 -10.0625 1.5625 C-8.78729492 1.50352539 -8.78729492 1.50352539 -7.48632812 1.44335938 C-6.67744141 1.40146484 -5.86855469 1.35957031 -5.03515625 1.31640625 C-3.91185913 1.26141968 -3.91185913 1.26141968 -2.76586914 1.20532227 C-0.97538674 1.18228937 -0.97538674 1.18228937 0 0 Z " fill="#f43f5e" transform="translate(97,80)"/>
<path d="M0 0 C0.33 0 0.66 0 1 0 C1.81496063 21.77755906 1.81496063 21.77755906 -3 29 C-3.66 27.68 -4.32 26.36 -5 25 C-4.34 24.67 -3.68 24.34 -3 24 C-3.01160156 23.38511719 -3.02320313 22.77023438 -3.03515625 22.13671875 C-3.04417969 21.32847656 -3.05320312 20.52023438 -3.0625 19.6875 C-3.07410156 18.88699219 -3.08570313 18.08648437 -3.09765625 17.26171875 C-3 15 -3 15 -2 12 C-1.69760965 9.13569136 -1.49234231 6.27080066 -1.28125 3.3984375 C-1 1 -1 1 0 0 Z " fill="#f43f5e" transform="translate(352,156)"/>
<path d="M0 0 C-0.33 2.64 -0.66 5.28 -1 8 C-1.33 8 -1.66 8 -2 8 C-2 6.02 -2 4.04 -2 2 C-2.99 2.33 -3.98 2.66 -5 3 C-5.13277344 3.88042969 -5.26554687 4.76085937 -5.40234375 5.66796875 C-5.66724609 7.41013672 -5.66724609 7.41013672 -5.9375 9.1875 C-6.11152344 10.33605469 -6.28554688 11.48460937 -6.46484375 12.66796875 C-6.91379313 15.46325212 -7.42082162 18.22933586 -8 21 C-8.33 21 -8.66 21 -9 21 C-10.125 14.25 -10.125 14.25 -9 12 C-9.020625 10.72125 -9.04125 9.4425 -9.0625 8.125 C-9.09160451 4.91768287 -9.08152924 2.60191155 -7 0 C-4.04680182 -1.23843794 -3.12561472 -1.04187157 0 0 Z " fill="#f43f5e" transform="translate(362,135)"/>
<path d="M0 0 C0.33 0 0.66 0 1 0 C1.02725341 1.7290774 1.04650987 3.45828176 1.0625 5.1875 C1.07410156 6.15042969 1.08570313 7.11335938 1.09765625 8.10546875 C1.00444647 10.86820669 0.60575907 13.30971708 0 16 C-0.5925611 19.75288699 -1 23.19389925 -1 27 C-1.66 27.33 -2.32 27.66 -3 28 C-3 29.98 -3 31.96 -3 34 C-3.66 34 -4.32 34 -5 34 C-3.78385337 22.56822166 -2.12118336 11.2988367 0 0 Z " fill="#f43f5e" transform="translate(342,52)"/>
<path d="M0 0 C0.33 0 0.66 0 1 0 C1.02923559 3.85415052 1.04687777 7.70827215 1.0625 11.5625 C1.07087891 12.64853516 1.07925781 13.73457031 1.08789062 14.85351562 C1.1213412 25.85875636 1.1213412 25.85875636 0 31 C-2 33 -2 33 -3.9453125 33.1953125 C-5.96354167 33.13020833 -7.98177083 33.06510417 -10 33 C-8.6875 31.5 -8.6875 31.5 -7 30 C-6.01 30 -5.02 30 -4 30 C-1.63094403 25.57776219 -0.88699403 21.7947104 -0.68359375 16.796875 C-0.64169922 15.8171875 -0.59980469 14.8375 -0.55664062 13.828125 C-0.51732422 12.81234375 -0.47800781 11.7965625 -0.4375 10.75 C-0.39431641 9.71875 -0.35113281 8.6875 -0.30664062 7.625 C-0.20074318 5.0834613 -0.09866557 2.54182804 0 0 Z " fill="#f43f5e" transform="translate(252,82)"/>
<path d="M0 0 C0.99 0.33 1.98 0.66 3 1 C3.22753655 4.85328196 3.42856775 8.70751715 3.625 12.5625 C3.68945312 13.64853516 3.75390625 14.73457031 3.8203125 15.85351562 C4.10557825 21.71929255 4.07543098 26.47871987 2 32 C1.34 31.67 0.68 31.34 0 31 C0.2784375 30.195625 0.2784375 30.195625 0.5625 29.375 C1.11256128 26.38895306 0.50664413 23.97653426 0 21 C0.495 19.515 0.495 19.515 1 18 C1.09627338 15.30151372 1.13931086 12.63509624 1.125 9.9375 C1.12886719 9.20466797 1.13273438 8.47183594 1.13671875 7.71679688 C1.21095757 3.72879812 1.21095757 3.72879812 0 0 Z " fill="#f43f5e" transform="translate(249,47)"/>
<path d="M0 0 C0.33 0 0.66 0 1 0 C2.30433619 5.93627021 2.11086318 11.83332252 2.0625 17.875 C2.05798828 18.94492188 2.05347656 20.01484375 2.04882812 21.1171875 C2.03709749 23.74484986 2.02068228 26.37239538 2 29 C1.34 29.33 0.68 29.66 0 30 C-1.28736468 19.89913869 -0.73019395 10.11037781 0 0 Z " fill="#f43f5e" transform="translate(39,163)"/>
<path d="M0 0 C0.33 0 0.66 0 1 0 C1.4584244 16.47781051 1.4584244 16.47781051 -1 22 C-3.625 24.0625 -3.625 24.0625 -6 25 C-6 23.35 -6 21.7 -6 20 C-5.01 20.33 -4.02 20.66 -3 21 C-2.87625 19.7625 -2.7525 18.525 -2.625 17.25 C-1.98787403 11.46046401 -0.99971644 5.73623704 0 0 Z " fill="#f43f5e" transform="translate(334,100)"/>
<path d="M0 0 C0.66 0 1.32 0 2 0 C1.71638858 2.70939422 1.4233895 5.41722661 1.125 8.125 C1.04636719 8.88554687 0.96773438 9.64609375 0.88671875 10.4296875 C0.39026335 14.85959721 -0.40400079 18.80211971 -2 23 C-2.66 23 -3.32 23 -4 23 C-4.10016463 19.4942379 -3.76896494 16.41762195 -3 13 C-2.855625 12.236875 -2.71125 11.47375 -2.5625 10.6875 C-1.81097133 7.09686302 -0.90390165 3.55534648 0 0 Z " fill="#f43f5e" transform="translate(347,195)"/>
<path d="M0 0 C0.33 0 0.66 0 1 0 C2.40027356 23.58238484 2.40027356 23.58238484 1 35 C0.67 35 0.34 35 0 35 C-0.77490161 30.30623571 -1.07592871 25.9418367 -0.87890625 21.19140625 C-0.83056641 19.95068359 -0.78222656 18.70996094 -0.73242188 17.43164062 C-0.67634766 16.15482422 -0.62027344 14.87800781 -0.5625 13.5625 C-0.51029297 12.25861328 -0.45808594 10.95472656 -0.40429688 9.61132812 C-0.27519585 6.40727553 -0.14025405 3.20358054 0 0 Z " fill="#f43f5e" transform="translate(129,148)"/>
<path d="M0 0 C0.33 0 0.66 0 1 0 C1 2.31 1 4.62 1 7 C1.66 7 2.32 7 3 7 C3.22307542 9.2277397 3.42788178 11.45731364 3.625 13.6875 C3.74101562 14.92886719 3.85703125 16.17023438 3.9765625 17.44921875 C3.99953004 20.92880169 3.54051631 22.92484721 2 26 C1.67 26 1.34 26 1 26 C0.67 17.42 0.34 8.84 0 0 Z " fill="#f43f5e" transform="translate(146,132)"/>
<path d="M0 0 C0.99 0.495 0.99 0.495 2 1 C1.98839844 1.63808594 1.97679687 2.27617188 1.96484375 2.93359375 C1.95582031 3.75988281 1.94679687 4.58617188 1.9375 5.4375 C1.92589844 6.26121094 1.91429687 7.08492188 1.90234375 7.93359375 C1.76732652 9.99163938 1.76732652 9.99163938 3 11 C3.07271741 13.35313555 3.08370868 15.70833668 3.0625 18.0625 C3.05347656 19.35285156 3.04445312 20.64320312 3.03515625 21.97265625 C3.02355469 22.97167969 3.01195312 23.97070312 3 25 C2.34 25.33 1.68 25.66 1 26 C0.34344611 17.31238511 -0.16311941 8.71782637 0 0 Z " fill="#f43f5e" transform="translate(210,84)"/>
<path d="M0 0 C0.33 0 0.66 0 1 0 C1.97350957 11.12796329 1.89556188 21.86747694 1 33 C0.67 33 0.34 33 0 33 C0 29.04 0 25.08 0 21 C-0.66 20.67 -1.32 20.34 -2 20 C-1.84660156 19.16210938 -1.69320312 18.32421875 -1.53515625 17.4609375 C-0.9759294 13.84433176 -0.67860424 10.27600704 -0.4375 6.625 C-0.35371094 5.37976563 -0.26992187 4.13453125 -0.18359375 2.8515625 C-0.12300781 1.91054687 -0.06242188 0.96953125 0 0 Z " fill="#f43f5e" transform="translate(253,178)"/>
<path d="M0 0 C-3.12343663 2.08229108 -3.53852922 2.23770457 -7.01171875 1.9765625 C-7.76904297 1.925 -8.52636719 1.8734375 -9.30664062 1.8203125 C-10.48516602 1.72363281 -10.48516602 1.72363281 -11.6875 1.625 C-12.48478516 1.56828125 -13.28207031 1.5115625 -14.10351562 1.453125 C-16.06973581 1.31183972 -18.03498824 1.15720094 -20 1 C-20 0.34 -20 -0.32 -20 -1 C-13.15531917 -2.14078014 -6.44518219 -3.2225911 0 0 Z " fill="#f43f5e" transform="translate(316,40)"/>
<path d="M0 0 C0.33 0 0.66 0 1 0 C2.12513633 8.01659634 2.09579384 15.92138585 2 24 C1.67 24 1.34 24 1 24 C1 20.7 1 17.4 1 14 C0.34 14 -0.32 14 -1 14 C-1.18451025 4.58997722 -1.18451025 4.58997722 0 0 Z " fill="#f43f5e" transform="translate(395,80)"/>
<path d="M0 0 C5.76044212 0.60636233 10.72014369 2.75658279 16 5 C15.67 5.66 15.34 6.32 15 7 C3.97553517 5.18042813 3.97553517 5.18042813 0 2 C0 1.34 0 0.68 0 0 Z " fill="#f43f5e" transform="translate(233,41)"/>
<path d="M0 0 C0.33 0 0.66 0 1 0 C1.06058594 0.92941406 1.12117188 1.85882813 1.18359375 2.81640625 C1.79571552 11.94146885 1.79571552 11.94146885 3 21 C4.32 21.33 5.64 21.66 7 22 C5.00045254 22.04254356 2.99958364 22.04080783 1 22 C0 21 0 21 -0.11352539 18.95874023 C-0.10828857 18.08419189 -0.10305176 17.20964355 -0.09765625 16.30859375 C-0.09443359 15.36435547 -0.09121094 14.42011719 -0.08789062 13.44726562 C-0.07951172 12.45404297 -0.07113281 11.46082031 -0.0625 10.4375 C-0.05798828 9.44041016 -0.05347656 8.44332031 -0.04882812 7.41601562 C-0.03700007 4.94395151 -0.02051849 2.47200482 0 0 Z " fill="#f43f5e" transform="translate(263,221)"/>
<path d="M0 0 C0.33 0 0.66 0 1 0 C1 2.31 1 4.62 1 7 C1.66 7 2.32 7 3 7 C3.70173653 11.38585329 4.10834375 15.55790643 4 20 C3.34 20.33 2.68 20.66 2 21 C0.79556805 13.94546999 -0.28100502 7.16562789 0 0 Z " fill="#f43f5e" transform="translate(306,162)"/>
<path d="M0 0 C0.33 0 0.66 0 1 0 C1.70201821 10.35476854 2.14809693 20.61675986 2 31 C1.67 31 1.34 31 1 31 C1 26.71 1 22.42 1 18 C0.01 17.67 -0.98 17.34 -2 17 C-1.67 16.34 -1.34 15.68 -1 15 C-0.76827173 12.45384991 -0.58105471 9.92603775 -0.4375 7.375 C-0.39431641 6.66859375 -0.35113281 5.9621875 -0.30664062 5.234375 C-0.20055249 3.48981463 -0.09977111 1.74493303 0 0 Z " fill="#f43f5e" transform="translate(397,161)"/>
<path d="M0 0 C0.66 0.33 1.32 0.66 2 1 C2.47574438 3.54024004 2.84007547 6.00051464 3.125 8.5625 C3.21136719 9.27341797 3.29773438 9.98433594 3.38671875 10.71679688 C3.59934783 12.47689312 3.80072697 14.23834164 4 16 C3.34 16.33 2.68 16.66 2 17 C1.814375 15.824375 1.814375 15.824375 1.625 14.625 C1.20882007 11.85942178 1.20882007 11.85942178 -1 10 C-0.7578125 8.0546875 -0.7578125 8.0546875 -0.125 5.875 C0.07867187 5.15054688 0.28234375 4.42609375 0.4921875 3.6796875 C0.65976562 3.12539063 0.82734375 2.57109375 1 2 C0.34 1.67 -0.32 1.34 -1 1 C-0.67 0.67 -0.34 0.34 0 0 Z " fill="#f43f5e" transform="translate(317,41)"/>
<path d="M0 0 C0.33 0.66 0.66 1.32 1 2 C-3.97283686 3.30864128 -8.8578067 4.58862454 -14 5 C-14.66 4.34 -15.32 3.68 -16 3 C-5.62642369 -0.44419134 -5.62642369 -0.44419134 0 0 Z " fill="#f43f5e" transform="translate(184,41)"/>
<path d="M0 0 C0.99 0.33 1.98 0.66 3 1 C3 1.99 3 2.98 3 4 C3.66 4 4.32 4 5 4 C6.0625 5.875 6.0625 5.875 7 8 C6.67 8.66 6.34 9.32 6 10 C6.99 10.33 7.98 10.66 9 11 C8.67 11.99 8.34 12.98 8 14 C5.50447597 11.72402354 3.93377014 9.39278822 2.3125 6.4375 C1.87550781 5.65246094 1.43851563 4.86742187 0.98828125 4.05859375 C0 2 0 2 0 0 Z " fill="#f43f5e" transform="translate(151,220)"/>
<path d="M0 0 C0.66 0 1.32 0 2 0 C1.65171318 5.39844578 1.65171318 5.39844578 1 8 C-0.9375 9.5625 -0.9375 9.5625 -3 10 C-3.66 9.67 -4.32 9.34 -5 9 C-5 8.34 -5 7.68 -5 7 C-4.01 6.34 -3.02 5.68 -2 5 C-2 4.01 -2 3.02 -2 2 C-1.34 2 -0.68 2 0 2 C0 1.34 0 0.68 0 0 Z " fill="#f43f5e" transform="translate(397,234)"/>
<path d="M0 0 C4.95 0 9.9 0 15 0 C15 0.33 15 0.66 15 1 C14.15695313 1.08636719 13.31390625 1.17273438 12.4453125 1.26171875 C11.34960938 1.40222656 10.25390625 1.54273438 9.125 1.6875 C8.03445312 1.81511719 6.94390625 1.94273437 5.8203125 2.07421875 C2.7697488 2.71612757 2.7697488 2.71612757 1.6171875 5.58203125 C1.41351563 6.37996094 1.20984375 7.17789063 1 8 C0.67 8 0.34 8 0 8 C0 5.36 0 2.72 0 0 Z " fill="#f43f5e" transform="translate(40,152)"/>
<path d="M0 0 C2.27477677 3.53854164 1.99082706 5.70947373 1.125 9.75 C0.92132813 10.73484375 0.71765625 11.7196875 0.5078125 12.734375 C0.34023438 13.48203125 0.17265625 14.2296875 0 15 C-2 13 -2 13 -2.1875 10.0625 C-2 7 -2 7 -1 4 C-0.65772583 2.66893378 -0.32248257 1.33599921 0 0 Z " fill="#f43f5e" transform="translate(343,223)"/>
<path d="M0 0 C2.1519437 3.22791555 2.20086443 4.28400809 2 8 C2.66 8.33 3.32 8.66 4 9 C4 9.99 4 10.98 4 12 C3.01 12.33 2.02 12.66 1 13 C0 12 0 12 -0.09765625 9.27734375 C-0.08605469 8.17519531 -0.07445312 7.07304688 -0.0625 5.9375 C-0.05347656 4.83277344 -0.04445312 3.72804687 -0.03515625 2.58984375 C-0.02355469 1.73519531 -0.01195312 0.88054688 0 0 Z " fill="#f43f5e" transform="translate(50,49)"/>
<path d="M0 0 C1.2684375 0.495 1.2684375 0.495 2.5625 1 C2.5625 1.66 2.5625 2.32 2.5625 3 C1.9025 3 1.2425 3 0.5625 3 C0.5625 2.34 0.5625 1.68 0.5625 1 C-0.04078125 1.09539063 -0.6440625 1.19078125 -1.265625 1.2890625 C-2.46445312 1.45535156 -2.46445312 1.45535156 -3.6875 1.625 C-4.47640625 1.74101563 -5.2653125 1.85703125 -6.078125 1.9765625 C-8.75902459 2.00319395 -10.16444089 1.36592084 -12.4375 0 C-8.41501725 -2.01124138 -4.18016888 -1.21604913 0 0 Z " fill="#f43f5e" transform="translate(392.4375,44)"/>
<path d="M0 0 C0.33 0 0.66 0 1 0 C1 2.97 1 5.94 1 9 C1.66 9 2.32 9 3 9 C3.33 11.97 3.66 14.94 4 18 C1.03688631 15.03688631 0.08595671 12.27387844 -0.1953125 8.10546875 C-0.17210937 7.14253906 -0.14890625 6.17960938 -0.125 5.1875 C-0.10695312 4.21167969 -0.08890625 3.23585937 -0.0703125 2.23046875 C-0.04710937 1.49441406 -0.02390625 0.75835937 0 0 Z " fill="#f43f5e" transform="translate(37,215)"/>
<path d="M0 0 C0.33 0 0.66 0 1 0 C1.06058594 1.20398438 1.12117188 2.40796875 1.18359375 3.6484375 C1.26799732 5.22397077 1.35264541 6.79949096 1.4375 8.375 C1.47681641 9.1690625 1.51613281 9.963125 1.55664062 10.78125 C1.68893404 15.02601221 1.68893404 15.02601221 3 19 C1.68 18.67 0.36 18.34 -1 18 C-0.505 9.09 -0.505 9.09 0 0 Z " fill="#f43f5e" transform="translate(83,187)"/>
<path d="M0 0 C0.66 0 1.32 0 2 0 C2.1953125 6.0546875 2.1953125 6.0546875 2 8 C1.34 8.66 0.68 9.32 0 10 C-1.60339848 6.88228073 -2.18974141 5.60988311 -1.125 2.1875 C-0.75375 1.465625 -0.3825 0.74375 0 0 Z " fill="#f43f5e" transform="translate(291,134)"/>
<path d="M0 0 C1.50559539 1.96382007 2.89131683 3.78263366 4 6 C6.32156597 6.40729228 8.6568787 6.74438677 11 7 C11 7.33 11 7.66 11 8 C7.7 8 4.4 8 1 8 C0.02391783 5.07175348 -0.08226668 3.04386724 0 0 Z " fill="#f43f5e" transform="translate(316,234)"/>
<path d="M0 0 C1.37478516 0.01740234 1.37478516 0.01740234 2.77734375 0.03515625 C3.69644531 0.04417969 4.61554687 0.05320313 5.5625 0.0625 C6.27277344 0.07410156 6.98304687 0.08570313 7.71484375 0.09765625 C7.71484375 0.42765625 7.71484375 0.75765625 7.71484375 1.09765625 C5.40484375 1.09765625 3.09484375 1.09765625 0.71484375 1.09765625 C-0.28531812 3.09797998 -0.77911633 4.92891373 -1.28515625 7.09765625 C-1.94515625 7.09765625 -2.60515625 7.09765625 -3.28515625 7.09765625 C-3.32769981 5.09810879 -3.32596408 3.09723989 -3.28515625 1.09765625 C-2.28515625 0.09765625 -2.28515625 0.09765625 0 0 Z " fill="#f43f5e" transform="translate(54.28515625,39.90234375)"/>
<path d="M0 0 C0 0.33 0 0.66 0 1 C-1.03125 0.95875 -2.0625 0.9175 -3.125 0.875 C-6.86829627 0.99575149 -9.53734547 1.64872018 -13 3 C-12.67 2.01 -12.34 1.02 -12 0 C-7.90946594 -1.91890042 -3.80732972 -2.85549729 0 0 Z " fill="#f43f5e" transform="translate(280,42)"/>
<path d="M0 0 C2.97 0 5.94 0 9 0 C8.67 0.66 8.34 1.32 8 2 C5.35139573 2.59355614 2.70802678 2.74209269 0 3 C0 2.01 0 1.02 0 0 Z " fill="#f43f5e" transform="translate(328,239)"/>
<path d="M0 0 C0.75 1.6875 0.75 1.6875 1 4 C-0.9375 6.75 -0.9375 6.75 -3 9 C-3.33 8.01 -3.66 7.02 -4 6 C-2.0625 2.8125 -2.0625 2.8125 0 0 Z " fill="#f43f5e" transform="translate(128,229)"/>
<path d="M0 0 C0.33 0 0.66 0 1 0 C3.14285714 7.42857143 3.14285714 7.42857143 4 11 C3.01 11.33 2.02 11.66 1 12 C-0.3271261 8.0186217 -0.06915913 4.14954773 0 0 Z " fill="#f43f5e" transform="translate(303,142)"/>
<path d="M0 0 C0.99 0.33 1.98 0.66 3 1 C3 3.97 3 6.94 3 10 C2.34 9.34 1.68 8.68 1 8 C1 6.68 1 5.36 1 4 C0.34 3.67 -0.32 3.34 -1 3 C-0.67 2.01 -0.34 1.02 0 0 Z " fill="#f43f5e" transform="translate(81,150)"/>
</svg>
